<svg width="18" height="27" viewBox="0 0 18 27" fill="none" xmlns="http://www.w3.org/2000/svg">
<path d="M2.37651 5.52951e-05C2.56194 -0.00144578 2.74587 0.0282497 2.91764 0.0874195C3.08941 0.146589 3.2456 0.234057 3.37716 0.344749L17.0894 12.5672C17.22 12.6778 17.3237 12.8091 17.3944 12.9536C17.4652 13.0981 17.5016 13.2529 17.5017 13.4094C17.5018 13.5658 17.4655 13.7207 17.3949 13.8653C17.3243 14.0098 17.2208 14.1412 17.0902 14.2518C16.9597 14.3625 16.8047 14.4503 16.6341 14.5102C16.4635 14.5701 16.2807 14.601 16.096 14.6011C15.9113 14.6011 15.7285 14.5704 15.5578 14.5106C15.3872 14.4508 15.2321 14.3631 15.1014 14.2525L1.38253 2.02866C1.18482 1.86235 1.05014 1.64987 0.995729 1.41839C0.941312 1.18691 0.969625 0.946941 1.07705 0.729162C1.18447 0.511383 1.36613 0.325685 1.59879 0.195809C1.83145 0.0659332 2.10456 -0.00222305 2.38318 5.52955e-05L2.37651 5.52951e-05Z" fill="black"/>
<path d="M16.0912 12.5167C16.3698 12.5144 16.6429 12.5825 16.8756 12.7124C17.1082 12.8423 17.2899 13.028 17.3973 13.2458C17.5047 13.4635 17.5331 13.7035 17.4786 13.935C17.4242 14.1665 17.2896 14.3789 17.0918 14.5453L3.01442 26.6364C2.88474 26.7501 2.7296 26.8409 2.55807 26.9033C2.38654 26.9657 2.20205 26.9986 2.01536 27C1.82867 27.0013 1.64353 26.9712 1.47074 26.9113C1.29795 26.8515 1.14096 26.763 1.00895 26.6512C0.876938 26.5394 0.772541 26.4064 0.701851 26.26C0.631161 26.1137 0.595591 25.9568 0.597223 25.7987C0.598854 25.6406 0.637654 25.4843 0.711353 25.339C0.785052 25.1937 0.892176 25.0623 1.02648 24.9524L15.0972 12.8613C15.228 12.7513 15.3831 12.6643 15.5537 12.6051C15.7242 12.546 15.9069 12.5159 16.0912 12.5167Z" fill="black"/>
</svg>
